<?xml version="1.0" encoding="utf-8"?>
<!-- Generator: Adobe Illustrator 22.0.1, SVG Export Plug-In . SVG Version: 6.00 Build 0)  -->
<svg version="1.1" id="Layer_1" xmlns="http://www.w3.org/2000/svg" xmlns:xlink="http://www.w3.org/1999/xlink" x="0px" y="0px"
	 width="55px" height="55px" viewBox="0 0 55 55" style="enable-background:new 0 0 55 55;" xml:space="preserve">
<style type="text/css">
	.st0{fill:#1A1A1A;}
</style>
<g>
	<path class="st0" d="M4.3,15.1c-1.2,1.2-1.8,2.7-1.8,4.4v23.2c0,1.7,0.6,3.2,1.8,4.4c1.2,1.2,2.7,1.8,4.4,1.8h1.8V13.2H8.8
		C7,13.2,5.6,13.8,4.3,15.1L4.3,15.1z M4.3,15.1"/>
	<path class="st0" d="M38.2,8.8c0-0.7-0.3-1.4-0.8-1.9c-0.5-0.5-1.2-0.8-1.9-0.8H19.5c-0.7,0-1.4,0.3-1.9,0.8
		C17,7.4,16.8,8,16.8,8.8v4.5h-3.6v35.7h28.6V13.2h-3.6V8.8z M34.6,13.2H20.4V9.6h14.3V13.2z M34.6,13.2"/>
	<path class="st0" d="M50.7,15.1c-1.2-1.2-2.7-1.8-4.4-1.8h-1.8v35.7h1.8c1.7,0,3.2-0.6,4.4-1.8c1.2-1.2,1.8-2.7,1.8-4.4V19.5
		C52.5,17.8,51.9,16.3,50.7,15.1L50.7,15.1z M50.7,15.1"/>
</g>
</svg>
