<?xml version="1.0" encoding="utf-8"?>
<!-- Generator: Adobe Illustrator 23.0.0, SVG Export Plug-In . SVG Version: 6.00 Build 0)  -->
<svg version="1.1" id="Capa_1" xmlns="http://www.w3.org/2000/svg" xmlns:xlink="http://www.w3.org/1999/xlink" x="0px" y="0px"
	 viewBox="0 0 159 50" style="enable-background:new 0 0 159 50;" xml:space="preserve">
<style type="text/css">
	.st0{opacity:0.26;}
	.st1{fill:#FFFFFF;}
</style>
<g class="st0">
	<circle class="st1" cx="1.93" cy="1.53" r="1.58"/>
	<circle class="st1" cx="1.93" cy="8.08" r="1.58"/>
	<circle class="st1" cx="1.93" cy="14.62" r="1.58"/>
	<circle class="st1" cx="1.93" cy="21.17" r="1.58"/>
	<circle class="st1" cx="1.93" cy="27.71" r="1.58"/>
	<circle class="st1" cx="1.93" cy="34.26" r="1.58"/>
	<circle class="st1" cx="1.93" cy="40.8" r="1.58"/>
	<circle class="st1" cx="1.93" cy="47.35" r="1.58"/>
	<circle class="st1" cx="8.38" cy="1.53" r="1.58"/>
	<circle class="st1" cx="8.38" cy="8.08" r="1.58"/>
	<circle class="st1" cx="8.38" cy="14.62" r="1.58"/>
	<circle class="st1" cx="8.38" cy="21.17" r="1.58"/>
	<circle class="st1" cx="8.38" cy="27.71" r="1.58"/>
	<circle class="st1" cx="8.38" cy="34.26" r="1.58"/>
	<circle class="st1" cx="8.38" cy="40.8" r="1.58"/>
	<circle class="st1" cx="8.38" cy="47.35" r="1.58"/>
	<circle class="st1" cx="14.84" cy="1.53" r="1.58"/>
	<circle class="st1" cx="14.84" cy="8.08" r="1.58"/>
	<circle class="st1" cx="14.84" cy="14.62" r="1.58"/>
	<circle class="st1" cx="14.84" cy="21.17" r="1.58"/>
	<circle class="st1" cx="14.84" cy="27.71" r="1.58"/>
	<circle class="st1" cx="14.84" cy="34.26" r="1.58"/>
	<circle class="st1" cx="14.84" cy="40.8" r="1.58"/>
	<circle class="st1" cx="14.84" cy="47.35" r="1.58"/>
	<circle class="st1" cx="21.3" cy="1.53" r="1.58"/>
	<circle class="st1" cx="21.3" cy="8.08" r="1.58"/>
	<circle class="st1" cx="21.3" cy="14.62" r="1.58"/>
	<circle class="st1" cx="21.3" cy="21.17" r="1.58"/>
	<circle class="st1" cx="21.3" cy="27.71" r="1.58"/>
	<circle class="st1" cx="21.3" cy="34.26" r="1.58"/>
	<circle class="st1" cx="21.3" cy="40.8" r="1.58"/>
	<circle class="st1" cx="21.3" cy="47.35" r="1.58"/>
	<circle class="st1" cx="27.76" cy="1.53" r="1.58"/>
	<circle class="st1" cx="27.76" cy="8.08" r="1.58"/>
	<circle class="st1" cx="27.76" cy="14.62" r="1.58"/>
	<circle class="st1" cx="27.76" cy="21.17" r="1.58"/>
	<circle class="st1" cx="27.76" cy="27.71" r="1.58"/>
	<circle class="st1" cx="27.76" cy="34.26" r="1.58"/>
	<circle class="st1" cx="27.76" cy="40.8" r="1.58"/>
	<circle class="st1" cx="27.76" cy="47.35" r="1.58"/>
	<circle class="st1" cx="34.22" cy="1.53" r="1.58"/>
	<circle class="st1" cx="34.22" cy="8.08" r="1.58"/>
	<circle class="st1" cx="34.22" cy="14.62" r="1.58"/>
	<circle class="st1" cx="34.22" cy="21.17" r="1.58"/>
	<circle class="st1" cx="34.22" cy="27.71" r="1.58"/>
	<circle class="st1" cx="34.22" cy="34.26" r="1.58"/>
	<circle class="st1" cx="34.22" cy="40.8" r="1.58"/>
	<circle class="st1" cx="34.22" cy="47.35" r="1.58"/>
	<circle class="st1" cx="40.67" cy="1.53" r="1.58"/>
	<circle class="st1" cx="40.67" cy="8.08" r="1.58"/>
	<circle class="st1" cx="40.67" cy="14.62" r="1.58"/>
	<circle class="st1" cx="40.67" cy="21.17" r="1.58"/>
	<circle class="st1" cx="40.67" cy="27.71" r="1.58"/>
	<circle class="st1" cx="40.67" cy="34.26" r="1.58"/>
	<circle class="st1" cx="40.67" cy="40.8" r="1.58"/>
	<circle class="st1" cx="40.67" cy="47.35" r="1.58"/>
	<circle class="st1" cx="47.13" cy="1.53" r="1.58"/>
	<circle class="st1" cx="47.13" cy="8.08" r="1.58"/>
	<circle class="st1" cx="47.13" cy="14.62" r="1.58"/>
	<circle class="st1" cx="47.13" cy="21.17" r="1.58"/>
	<circle class="st1" cx="47.13" cy="27.71" r="1.58"/>
	<circle class="st1" cx="47.13" cy="34.26" r="1.58"/>
	<circle class="st1" cx="47.13" cy="40.8" r="1.58"/>
	<circle class="st1" cx="47.13" cy="47.35" r="1.58"/>
	<circle class="st1" cx="53.59" cy="1.53" r="1.58"/>
	<circle class="st1" cx="53.59" cy="8.08" r="1.58"/>
	<circle class="st1" cx="53.59" cy="14.62" r="1.58"/>
	<circle class="st1" cx="53.59" cy="21.17" r="1.58"/>
	<circle class="st1" cx="53.59" cy="27.71" r="1.58"/>
	<circle class="st1" cx="53.59" cy="34.26" r="1.58"/>
	<circle class="st1" cx="53.59" cy="40.8" r="1.58"/>
	<circle class="st1" cx="53.59" cy="47.35" r="1.58"/>
	<circle class="st1" cx="60.05" cy="1.53" r="1.58"/>
	<circle class="st1" cx="60.05" cy="8.08" r="1.58"/>
	<circle class="st1" cx="60.05" cy="14.62" r="1.58"/>
	<circle class="st1" cx="60.05" cy="21.17" r="1.58"/>
	<circle class="st1" cx="60.05" cy="27.71" r="1.58"/>
	<circle class="st1" cx="60.05" cy="34.26" r="1.58"/>
	<circle class="st1" cx="60.05" cy="40.8" r="1.58"/>
	<circle class="st1" cx="60.05" cy="47.35" r="1.58"/>
	<circle class="st1" cx="66.51" cy="1.53" r="1.58"/>
	<circle class="st1" cx="66.51" cy="8.08" r="1.58"/>
	<circle class="st1" cx="66.51" cy="14.62" r="1.58"/>
	<circle class="st1" cx="66.51" cy="21.17" r="1.58"/>
	<circle class="st1" cx="66.51" cy="27.71" r="1.58"/>
	<circle class="st1" cx="66.51" cy="34.26" r="1.58"/>
	<circle class="st1" cx="66.51" cy="40.8" r="1.58"/>
	<circle class="st1" cx="66.51" cy="47.35" r="1.58"/>
	<circle class="st1" cx="72.96" cy="1.53" r="1.58"/>
	<circle class="st1" cx="72.96" cy="8.08" r="1.58"/>
	<circle class="st1" cx="72.96" cy="14.62" r="1.58"/>
	<circle class="st1" cx="72.96" cy="21.17" r="1.58"/>
	<circle class="st1" cx="72.96" cy="27.71" r="1.58"/>
	<circle class="st1" cx="72.96" cy="34.26" r="1.58"/>
	<circle class="st1" cx="72.96" cy="40.8" r="1.58"/>
	<circle class="st1" cx="72.96" cy="47.35" r="1.58"/>
	<circle class="st1" cx="79.42" cy="1.53" r="1.58"/>
	<circle class="st1" cx="79.42" cy="8.08" r="1.58"/>
	<circle class="st1" cx="79.42" cy="14.62" r="1.58"/>
	<circle class="st1" cx="79.42" cy="21.17" r="1.58"/>
	<circle class="st1" cx="79.42" cy="27.71" r="1.58"/>
	<circle class="st1" cx="79.42" cy="34.26" r="1.58"/>
	<circle class="st1" cx="79.42" cy="40.8" r="1.58"/>
	<circle class="st1" cx="79.42" cy="47.35" r="1.58"/>
	<circle class="st1" cx="85.88" cy="1.53" r="1.58"/>
	<circle class="st1" cx="85.88" cy="8.08" r="1.58"/>
	<circle class="st1" cx="85.88" cy="14.62" r="1.58"/>
	<circle class="st1" cx="85.88" cy="21.17" r="1.58"/>
	<circle class="st1" cx="85.88" cy="27.71" r="1.58"/>
	<circle class="st1" cx="85.88" cy="34.26" r="1.58"/>
	<circle class="st1" cx="85.88" cy="40.8" r="1.58"/>
	<circle class="st1" cx="85.88" cy="47.35" r="1.58"/>
	<circle class="st1" cx="92.34" cy="1.53" r="1.58"/>
	<circle class="st1" cx="92.34" cy="8.08" r="1.58"/>
	<circle class="st1" cx="92.34" cy="14.62" r="1.58"/>
	<circle class="st1" cx="92.34" cy="21.17" r="1.58"/>
	<circle class="st1" cx="92.34" cy="27.71" r="1.58"/>
	<circle class="st1" cx="92.34" cy="34.26" r="1.58"/>
	<circle class="st1" cx="92.34" cy="40.8" r="1.58"/>
	<circle class="st1" cx="92.34" cy="47.35" r="1.58"/>
	<circle class="st1" cx="98.8" cy="1.53" r="1.58"/>
	<circle class="st1" cx="98.8" cy="8.08" r="1.58"/>
	<circle class="st1" cx="98.8" cy="14.62" r="1.58"/>
	<circle class="st1" cx="98.8" cy="21.17" r="1.58"/>
	<circle class="st1" cx="98.8" cy="27.71" r="1.58"/>
	<circle class="st1" cx="98.8" cy="34.26" r="1.58"/>
	<circle class="st1" cx="98.8" cy="40.8" r="1.58"/>
	<circle class="st1" cx="98.8" cy="47.35" r="1.58"/>
	<circle class="st1" cx="105.25" cy="1.53" r="1.58"/>
	<circle class="st1" cx="105.25" cy="8.08" r="1.58"/>
	<circle class="st1" cx="105.25" cy="14.62" r="1.58"/>
	<circle class="st1" cx="105.25" cy="21.17" r="1.58"/>
	<circle class="st1" cx="105.25" cy="27.71" r="1.58"/>
	<circle class="st1" cx="105.25" cy="34.26" r="1.58"/>
	<circle class="st1" cx="105.25" cy="40.8" r="1.58"/>
	<circle class="st1" cx="105.25" cy="47.35" r="1.58"/>
	<circle class="st1" cx="111.71" cy="1.53" r="1.58"/>
	<circle class="st1" cx="111.71" cy="8.08" r="1.58"/>
	<circle class="st1" cx="111.71" cy="14.62" r="1.58"/>
	<circle class="st1" cx="111.71" cy="21.17" r="1.58"/>
	<circle class="st1" cx="111.71" cy="27.71" r="1.58"/>
	<circle class="st1" cx="111.71" cy="34.26" r="1.58"/>
	<circle class="st1" cx="111.71" cy="40.8" r="1.58"/>
	<circle class="st1" cx="111.71" cy="47.35" r="1.58"/>
	<circle class="st1" cx="118.17" cy="1.53" r="1.58"/>
	<circle class="st1" cx="118.17" cy="8.08" r="1.58"/>
	<circle class="st1" cx="118.17" cy="14.62" r="1.58"/>
	<circle class="st1" cx="118.17" cy="21.17" r="1.58"/>
	<circle class="st1" cx="118.17" cy="27.71" r="1.58"/>
	<circle class="st1" cx="118.17" cy="34.26" r="1.58"/>
	<circle class="st1" cx="118.17" cy="40.8" r="1.58"/>
	<circle class="st1" cx="118.17" cy="47.35" r="1.58"/>
	<circle class="st1" cx="124.63" cy="1.53" r="1.58"/>
	<circle class="st1" cx="124.63" cy="8.08" r="1.58"/>
	<circle class="st1" cx="124.63" cy="14.62" r="1.58"/>
	<circle class="st1" cx="124.63" cy="21.17" r="1.58"/>
	<circle class="st1" cx="124.63" cy="27.71" r="1.58"/>
	<circle class="st1" cx="124.63" cy="34.26" r="1.58"/>
	<circle class="st1" cx="124.63" cy="40.8" r="1.58"/>
	<circle class="st1" cx="124.63" cy="47.35" r="1.58"/>
	<circle class="st1" cx="131.09" cy="1.53" r="1.58"/>
	<circle class="st1" cx="131.09" cy="8.08" r="1.58"/>
	<circle class="st1" cx="131.09" cy="14.62" r="1.58"/>
	<circle class="st1" cx="131.09" cy="21.17" r="1.58"/>
	<circle class="st1" cx="131.09" cy="27.71" r="1.58"/>
	<circle class="st1" cx="131.09" cy="34.26" r="1.58"/>
	<circle class="st1" cx="131.09" cy="40.8" r="1.58"/>
	<circle class="st1" cx="131.09" cy="47.35" r="1.58"/>
	<circle class="st1" cx="137.54" cy="1.53" r="1.58"/>
	<circle class="st1" cx="137.54" cy="8.08" r="1.58"/>
	<circle class="st1" cx="137.54" cy="14.62" r="1.58"/>
	<circle class="st1" cx="137.54" cy="21.17" r="1.58"/>
	<circle class="st1" cx="137.54" cy="27.71" r="1.58"/>
	<circle class="st1" cx="137.54" cy="34.26" r="1.58"/>
	<circle class="st1" cx="137.54" cy="40.8" r="1.58"/>
	<circle class="st1" cx="137.54" cy="47.35" r="1.58"/>
	<circle class="st1" cx="144" cy="1.53" r="1.58"/>
	<circle class="st1" cx="144" cy="8.08" r="1.58"/>
	<circle class="st1" cx="144" cy="14.62" r="1.58"/>
	<circle class="st1" cx="144" cy="21.17" r="1.58"/>
	<circle class="st1" cx="144" cy="27.71" r="1.58"/>
	<circle class="st1" cx="144" cy="34.26" r="1.58"/>
	<circle class="st1" cx="144" cy="40.8" r="1.58"/>
	<circle class="st1" cx="144" cy="47.35" r="1.58"/>
	<circle class="st1" cx="150.46" cy="1.53" r="1.58"/>
	<circle class="st1" cx="150.46" cy="8.08" r="1.58"/>
	<circle class="st1" cx="150.46" cy="14.62" r="1.58"/>
	<circle class="st1" cx="150.46" cy="21.17" r="1.58"/>
	<circle class="st1" cx="150.46" cy="27.71" r="1.58"/>
	<circle class="st1" cx="150.46" cy="34.26" r="1.58"/>
	<circle class="st1" cx="150.46" cy="40.8" r="1.58"/>
	<circle class="st1" cx="150.46" cy="47.35" r="1.58"/>
	<circle class="st1" cx="156.92" cy="1.53" r="1.58"/>
	<circle class="st1" cx="156.92" cy="8.08" r="1.58"/>
	<circle class="st1" cx="156.92" cy="14.62" r="1.58"/>
	<circle class="st1" cx="156.92" cy="21.17" r="1.58"/>
	<circle class="st1" cx="156.92" cy="27.71" r="1.58"/>
	<circle class="st1" cx="156.92" cy="34.26" r="1.58"/>
	<circle class="st1" cx="156.92" cy="40.8" r="1.58"/>
	<circle class="st1" cx="156.92" cy="47.35" r="1.58"/>
</g>
</svg>
