<?xml version="1.0" encoding="utf-8"?>
<!-- Generator: Adobe Illustrator 22.0.1, SVG Export Plug-In . SVG Version: 6.00 Build 0)  -->
<svg version="1.1" id="Layer_1" xmlns="http://www.w3.org/2000/svg" xmlns:xlink="http://www.w3.org/1999/xlink" x="0px" y="0px"
	 viewBox="0 0 10 86" style="enable-background:new 0 0 10 86;" xml:space="preserve">
<style type="text/css">
	.st0{fill:#FFFFFF;}
</style>
<g>
	<path class="st0" d="M10,9.9V0H0v9.8c0.1,0,0.3,0,0.5,0.1v0.8c-0.2,0-0.3,0-0.5,0v8.5h1c0,0.7,0.1,1.3,0.1,2H0v7.5
		c0.6,0,1.2-0.2,1.9-0.4c-0.7,1.8-0.4,3.2,0.9,4.4c1.1,1,2.7,1.1,4,0.4c1.8-1.1,2.2-2.7,1.5-4.6c0.6,0.1,1.2,0.3,1.8,0.3v-7.5H8.9
		c0-0.7,0.1-1.3,0.1-2h1v-8.6H9.5V9.9H10z M4.3,14.5h1.4c0,0.5,0.1,0.9,0.1,1.4H4.2C4.2,15.5,4.3,15,4.3,14.5z M3.5,26.6
		c0.1-0.8,0.2-1.7,0.3-2.7h2.4c0.1,0.9,0.2,1.8,0.3,2.7H3.5z"/>
	<path class="st0" d="M3.3,35c0,1.8-1.5,3.3-3.3,3.3v-6.6C1.8,31.7,3.3,33.2,3.3,35z"/>
	<path class="st0" d="M10,31.7v6.6c-1.8,0-3.3-1.5-3.3-3.3C6.7,33.2,8.2,31.7,10,31.7z"/>
	<path class="st0" d="M8,40c0,1.7-1.3,3-3,3c-1.7,0-3-1.4-3-3.1c0-1.7,1.4-3,3-3C6.7,36.9,8,38.3,8,40z"/>
	<path class="st0" d="M0.7,85c-0.1,0.3-0.3,0.6-0.7,0.6v-1.3c0,0,0,0,0,0C0.4,84.3,0.7,84.6,0.7,85z"/>
	<path class="st0" d="M10,84.3v1.3h0c-0.4,0-0.7-0.3-0.7-0.7C9.4,84.5,9.6,84.3,10,84.3z"/>
	<path class="st0" d="M10,73.7v2.5c-0.7,0-1.3-0.6-1.3-1.3C8.8,74.2,9.3,73.7,10,73.7z"/>
	<path class="st0" d="M6,79.9c0,0.6-0.3,1-0.9,1C4.5,81,4,80.5,4,79.9c0-0.5,0.4-1,1.1-1C5.6,79,6,79.3,6,79.9z"/>
	<path class="st0" d="M1.3,74.9c0,0.7-0.5,1.3-1.2,1.3h0v-2.5C0.7,73.7,1.2,74.2,1.3,74.9z"/>
	<path class="st0" d="M6.5,70c0,0.8-0.7,1.5-1.6,1.5c-0.8,0-1.5-0.7-1.5-1.5c0-0.8,0.7-1.5,1.5-1.5C5.8,68.4,6.5,69.1,6.5,70z"/>
	<path class="st0" d="M10,63.2v3.5h0c-1,0-1.8-0.9-1.7-1.8C8.3,63.9,9.1,63.2,10,63.2z"/>
	<path class="st0" d="M1.8,64.9c0,1-0.8,1.8-1.8,1.8h0v-3.5h0C0.9,63.2,1.8,64,1.8,64.9z"/>
	<path class="st0" d="M7,60c0,1.1-1,2-2,2c-1.1,0-2-1-2-2.1c0-1.1,1-1.9,2-1.9C6.1,57.9,7,58.9,7,60z"/>
	<path class="st0" d="M7.5,50c0,1.4-1.1,2.5-2.5,2.5c-1.4,0-2.6-1.1-2.6-2.5c0-1.4,1.1-2.5,2.5-2.6C6.4,47.4,7.5,48.6,7.5,50z"/>
	<path class="st0" d="M10,52.7v4.6h0c-1.3,0-2.3-1-2.3-2.3C7.7,53.7,8.8,52.7,10,52.7L10,52.7z"/>
	<path class="st0" d="M2.3,54.9c0,1.3-1,2.3-2.3,2.3c0,0,0,0,0,0v-4.6h0C1.2,52.7,2.3,53.7,2.3,54.9z"/>
	<path class="st0" d="M10,42.2v5.6c0,0,0,0-0.1,0c-1.5,0-2.7-1.3-2.7-2.8C7.2,43.4,8.5,42.2,10,42.2z"/>
	<path class="st0" d="M2.8,45c0,1.5-1.3,2.8-2.8,2.8v-5.6h0C1.6,42.2,2.8,43.5,2.8,45z"/>
</g>
</svg>
