<?xml version="1.0" encoding="utf-8"?>
<!-- Generator: Adobe Illustrator 22.0.1, SVG Export Plug-In . SVG Version: 6.00 Build 0)  -->
<svg version="1.1" id="Layer_1" xmlns="http://www.w3.org/2000/svg" xmlns:xlink="http://www.w3.org/1999/xlink" x="0px" y="0px"
	 viewBox="0 0 200 50" style="enable-background:new 0 0 200 50;" xml:space="preserve">
<style type="text/css">
	.st0{fill:#61B8C0;}
	.st1{fill:#4D4D4D;}
</style>
<g>
	<polygon class="st0" points="0,6.9 6.2,6.9 6.2,49.7 13.5,49.7 13.5,6.9 19.7,6.9 19.7,0.3 0,0.3 	"/>
	<path class="st0" d="M43.7,21V9c0-5.8-2.6-8.7-7.8-8.7H22.7v49.5H30V30h3.3l4.3,19.7h6.9l-4.6-20.5C42.4,28,43.7,25.2,43.7,21z
		 M30,6.9h3.9c1.7,0,2.6,1,2.6,3.2v10.5c0,2.2-0.8,3.2-2.6,3.2H30V6.9z"/>
	<path class="st0" d="M62,0.3h-4.9c-5.4,0-8.2,2.9-8.2,8.7v40.8h7.2V31.9h6.7v17.9h7.2V9C70.2,3.2,67.4,0.3,62,0.3z M62.9,9.4v15.9
		h-6.7V9.4c0-1.7,0.8-2.5,2.5-2.5h1.8C62.1,6.9,62.9,7.7,62.9,9.4z"/>
	<polygon class="st0" points="85.2,35.3 80.2,0.3 73,0.3 81,49.7 89.3,49.7 97.3,0.3 90.1,0.3 	"/>
	<polygon class="st0" points="99.6,49.7 116.5,49.7 116.5,43.1 106.8,43.1 106.8,27.6 115.4,27.6 115.4,21 106.8,21 106.8,6.9 
		116.5,6.9 116.5,0.3 99.6,0.3 	"/>
	<polygon class="st0" points="127.7,0.3 120.4,0.3 120.4,49.7 136.6,49.7 136.6,43.1 127.7,43.1 	"/>
	<path class="st1" d="M150.7,8.8h-4.1c-4.3,0-6.5,2.3-6.5,7v33.6h5.4V34.5h6.2v14.9h5.4V15.7C157.2,11.1,155,8.8,150.7,8.8z
		 M151.8,29.6h-6.2V16.1c0-1.6,0.8-2.4,2.4-2.4h1.5c1.6,0,2.4,0.8,2.4,2.4V29.6z"/>
	<path class="st1" d="M178.9,25.7v-10c0-4.6-2.1-7-6.2-7H162v40.6h5.4V33h3.3l3.6,16.4h5.1l-3.8-16.9
		C177.8,31.5,178.9,29.3,178.9,25.7z M173.4,25.4c0,2-0.8,2.9-2.4,2.9h-3.6V13.7h3.6c1.6,0,2.4,1,2.4,2.9V25.4z"/>
	<path class="st1" d="M200,20.3v-4.4c0-4.7-2.3-7.1-6.9-7.1h-3.7c-4.2,0-6.3,2.3-6.3,7v26.8c0,4.6,2.1,6.8,6.3,6.8H200V29.6h-8.3
		v4.9h2.8v10h-3.7c-1.6,0-2.4-1-2.4-2.9V16.6c0-2,0.8-2.9,2.4-2.9h1.4c1.5,0,2.3,1,2.3,2.9v3.6H200z"/>
</g>
</svg>
